<svg xmlns="http://www.w3.org/2000/svg" width="1000" height="1000" viewBox="0 0 1000 1000">
  <defs>
    <style>
      .cls-1, .cls-2, .cls-3, .cls-4 {
        fill-rule: evenodd;
      }

      .cls-2 {
        fill: #fff;
      }

      .cls-3 {
        fill: #fa005a;
      }

      .cls-4 {
        fill: #ffc500;
      }
    </style>
  </defs>
  <path class="cls-1" d="M293,1000H707L995,703l-1-416L710,8H289L7,289V711Zm13-35L36,694V306L306,36H691L965,305l-2,388L692,964"/>
  <path class="cls-2" d="M692,964L962,693l1-387L692,36,306,37,37,306,36,692,308,964H692Z"/>
  <path class="cls-3" d="M672,531s-12.2,9.289-18-7,1-343,1-343-6.439-39-45-39-45,37-45,37V453s-6.244,9.785-12-3V127s-9.485-38-44-38-44,36-44,36V445s-5.549,9.437-11,1c0.174,0,0-272,0-272s-8.139-37-43-37-45,33-45,33l-1,289s-6.592,10.819-12,0,0-180,0-180-6.011-34-40-34-39,28-39,28V700s19.871,188.011,218,192c-0.391,0,125.439,7.257,195-129,1.563,0.391,123-353,123-353s2.473-27.012-29-21c-0.391-.391-40.6-4.124-63,24S672,531,672,531Z"/>
  <path class="cls-4" d="M494,803S614.1,681.022,616,672s0-61,0-61-46.841-54.392-53-56a21.85,21.85,0,0,0-16,2c-3.485,2.16-62,64-62,64l-63-65s-10.527-4.739-17,1-46.391,43.578-50,53c0-.2-4.546,49.94,0,62S472.935,804.012,477,804,484.652,809.762,494,803Z"/>
</svg>
